<?xml version="1.0" standalone="no"?>
<!DOCTYPE svg PUBLIC "-//W3C//DTD SVG 20010904//EN"
 "http://www.w3.org/TR/2001/REC-SVG-20010904/DTD/svg10.dtd">
<svg version="1.0" xmlns="http://www.w3.org/2000/svg"
 width="483.000000pt" height="194.000000pt" viewBox="0 0 483.000000 194.000000"
 preserveAspectRatio="xMidYMid meet">

<g transform="translate(0.000000,194.000000) scale(0.100000,-0.100000)"
 stroke="none">
<path fill="#4E73DF" d="M875 1899 c-167 -16 -335 -87 -481 -203 -127 -100 -219 -226 -283
-386 -143 -361 -39 -799 248 -1047 170 -147 339 -217 569 -237 l62 -6 0 170 0
170 -39 0 c-147 0 -310 75 -419 194 -227 249 -209 630 39 861 98 90 256 155
381 155 l38 0 0 170 c0 130 -3 170 -12 169 -7 -1 -53 -6 -103 -10z"/>
<path d="M860 965 l0 -305 65 0 65 0 0 109 0 109 218 4 c200 3 221 5 263 26
75 37 109 124 87 226 -13 63 -58 108 -122 125 -28 7 -145 11 -310 11 l-266 0
0 -305z m547 169 c21 -22 25 -32 20 -66 -10 -72 -13 -73 -235 -73 l-197 0 -3
83 -3 82 196 0 196 0 26 -26z"/>
<path d="M4220 965 l0 -305 290 0 290 0 0 55 0 55 -220 0 -220 0 -2 248 -3
247 -67 3 -68 3 0 -306z"/>
<path d="M1773 1090 c-49 -11 -103 -58 -125 -107 -23 -53 -26 -155 -5 -204 18
-45 77 -95 124 -108 49 -14 307 -14 356 0 50 14 113 71 128 117 16 47 16 137
0 184 -15 46 -78 103 -128 117 -43 12 -301 13 -350 1z m307 -98 c47 -23 62
-55 57 -125 -3 -47 -9 -63 -30 -85 -25 -25 -34 -27 -133 -30 -130 -5 -177 7
-204 51 -39 64 -17 166 42 192 50 22 223 20 268 -3z"/>
<path d="M2350 786 l0 -316 60 0 60 0 0 94 0 94 143 3 c139 4 145 5 193 34 71
44 96 97 92 196 -4 95 -33 145 -105 180 -45 22 -61 24 -245 27 l-198 4 0 -316z
m390 187 c37 -33 49 -91 30 -147 -18 -55 -48 -66 -185 -66 l-115 0 0 120 0
120 120 0 c116 0 121 -1 150 -27z"/>
<path d="M3106 1085 c-91 -32 -127 -83 -134 -189 -7 -116 39 -192 137 -225 21
-7 112 -11 237 -11 l204 0 0 45 0 45 -172 0 c-198 0 -241 8 -263 50 l-15 28
193 4 c170 3 196 5 222 22 40 26 53 44 60 86 9 52 -14 110 -54 137 -32 22 -43
23 -205 23 -120 -1 -183 -5 -210 -15z m328 -81 c19 -7 22 -62 3 -70 -7 -2 -86
-3 -176 -2 l-164 3 27 32 c15 17 37 34 49 36 35 7 244 8 261 1z"/>
<path d="M3660 881 l0 -221 60 0 60 0 0 170 0 170 104 0 c72 0 107 -4 114 -13
6 -7 12 -35 14 -62 l3 -50 60 0 60 0 0 60 c0 72 -18 118 -54 142 -22 16 -53
18 -223 21 l-198 4 0 -221z"/>
</g>
</svg>
