<?xml version="1.0" standalone="no"?>
<!DOCTYPE svg PUBLIC "-//W3C//DTD SVG 20010904//EN"
 "http://www.w3.org/TR/2001/REC-SVG-20010904/DTD/svg10.dtd">
<svg version="1.0" xmlns="http://www.w3.org/2000/svg"
 width="640.000000pt" height="640.000000pt" viewBox="0 0 640.000000 640.000000"
 preserveAspectRatio="xMidYMid meet">
<circle cx="320" cy="320" r="310" fill="#FFFFFF" />
<g fill="#FFFFFF" transform="translate(0.000000,639.000000) scale(0.100000,-0.100000)" stroke="none">
<path fill="#4E73DF" d="M3010 6340 c-723 -47 -1408 -338 -1944 -828 -486 -444 -835 -1066
-961 -1712 -43 -222 -58 -376 -57 -610 0 -511 105 -952 333 -1410 307 -615
793 -1101 1409 -1409 455 -227 903 -333 1410 -333 507 0 955 106 1410 333 616
308 1101 793 1409 1409 227 455 333 903 333 1410 0 234 -15 391 -57 610 -109
557 -382 1096 -773 1524 -444 486 -1066 835 -1712 961 -257 50 -557 71 -800
55z m283 -877 l-33 -4 -2 -412 -3 -411 -105 -3 c-490 -15 -944 -284 -1196
-709 -148 -250 -214 -526 -194 -817 10 -155 30 -258 72 -382 71 -208 188 -396
348 -555 270 -269 597 -410 980 -423 l95 -3 3 -412 c2 -380 4 -411 20 -416 9
-3 -59 -3 -153 -1 -336 9 -621 79 -930 230 -632 307 -1089 898 -1230 1592 -49
242 -57 571 -20 807 140 888 793 1614 1665 1850 93 25 300 62 390 69 62 5 333
5 293 0z m1402 -1306 c102 -29 199 -84 258 -146 67 -70 99 -125 129 -221 20
-65 23 -96 23 -230 0 -168 -12 -232 -61 -336 -38 -80 -130 -174 -211 -217
-156 -80 -228 -87 -995 -87 l-588 0 0 -360 0 -360 -222 2 -223 3 -3 975 c-1
536 0 981 3 988 4 10 181 12 917 10 831 -3 918 -5 973 -21z m782 -1029 c-2
-24 -4 -5 -4 42 0 47 2 66 4 43 2 -24 2 -62 0 -85z"/>
<path fill="#4E73DF" d="M3250 3556 l0 -254 83 -7 c45 -3 325 -5 622 -3 482 3 544 5 576 20
49 23 96 79 110 130 15 56 14 171 -1 228 -15 56 -72 114 -125 129 -27 7 -236
11 -652 11 l-613 0 0 -254z"/>
</g>
</svg>
