<?xml version="1.0" standalone="no"?>
<!DOCTYPE svg PUBLIC "-//W3C//DTD SVG 20010904//EN"
 "http://www.w3.org/TR/2001/REC-SVG-20010904/DTD/svg10.dtd">
<svg version="1.0" xmlns="http://www.w3.org/2000/svg"
 width="622.000000pt" height="248.000000pt" viewBox="0 0 622.000000 248.000000"
 preserveAspectRatio="xMidYMid meet">

<g transform="translate(0.000000,248.000000) scale(0.100000,-0.100000)"
fill="#FFFFFF" stroke="none">
<path d="M1031 2454 c-380 -64 -721 -324 -890 -679 -225 -471 -129 -1037 238
-1404 199 -198 457 -322 731 -351 61 -6 1001 -10 2593 -10 l2497 0 0 220 0
220 -2467 0 c-1358 0 -2504 2 -2549 5 -336 19 -631 269 -710 602 -24 100 -22
277 5 378 88 333 366 569 695 592 l86 6 0 218 0 219 -72 -1 c-40 -1 -111 -7
-157 -15z"/>
<path d="M1080 1241 l0 -401 85 0 84 0 3 148 3 147 295 5 c292 5 295 5 340 30
81 46 115 125 108 247 -6 96 -41 155 -113 192 l-50 26 -377 3 -378 3 0 -400z
m710 231 c27 -22 39 -106 20 -141 -24 -45 -62 -51 -320 -51 l-240 0 0 105 0
105 259 0 c235 0 261 -2 281 -18z"/>
<path d="M5450 1240 l0 -400 375 0 375 0 0 75 0 75 -290 0 -290 0 0 325 0 325
-85 0 -85 0 0 -400z"/>
<path d="M2254 1402 c-105 -36 -155 -98 -174 -214 -11 -70 0 -160 26 -209 21
-42 74 -89 123 -113 43 -19 63 -21 266 -21 211 0 222 1 267 23 105 53 154 150
146 291 -8 129 -71 212 -187 245 -85 24 -396 22 -467 -2z m444 -146 c36 -33
37 -36 40 -113 3 -90 -7 -116 -57 -150 -32 -21 -44 -23 -189 -23 -137 0 -158
2 -187 20 -60 37 -83 142 -47 224 31 68 54 75 245 76 l157 0 38 -34z"/>
<path d="M3017 1413 c-4 -3 -7 -188 -7 -410 l0 -403 80 0 80 0 0 120 0 120
133 0 c151 0 243 12 296 40 181 92 189 397 13 493 -26 14 -77 31 -112 36 -71
12 -473 15 -483 4z m479 -142 c50 -23 74 -68 74 -141 0 -74 -24 -118 -76 -142
-37 -16 -63 -18 -181 -16 l-138 3 -3 145 c-1 79 0 150 2 157 4 10 39 13 143
13 113 0 146 -4 179 -19z"/>
<path d="M4025 1411 c-141 -36 -212 -142 -203 -305 7 -124 50 -190 153 -238
48 -22 62 -23 333 -26 l283 -3 -3 63 -3 63 -255 5 c-281 5 -293 8 -325 69
l-15 30 259 3 c245 3 261 4 288 24 52 39 73 81 73 149 0 68 -21 110 -73 149
-27 20 -42 21 -255 23 -125 1 -240 -2 -257 -6z m413 -133 c7 -7 12 -21 12 -33
0 -42 -13 -45 -237 -45 -170 0 -213 3 -213 13 0 15 33 48 65 65 29 16 357 16
373 0z"/>
<path d="M4715 1408 c-3 -7 -4 -137 -3 -288 l3 -275 80 0 80 0 3 223 2 222
124 0 c157 0 168 -6 174 -104 l4 -66 79 0 79 0 0 83 c0 100 -25 160 -80 192
-32 18 -56 20 -288 23 -204 3 -253 1 -257 -10z"/>
</g>
</svg>
