<?xml version="1.0" standalone="no"?>
<!DOCTYPE svg PUBLIC "-//W3C//DTD SVG 20010904//EN"
 "http://www.w3.org/TR/2001/REC-SVG-20010904/DTD/svg10.dtd">
<svg version="1.0" xmlns="http://www.w3.org/2000/svg"
 width="300.000000pt" height="169.000000pt" viewBox="0 0 300.000000 169.000000"
 preserveAspectRatio="xMidYMid meet">
<metadata>
Created by potrace 1.10, written by Peter Selinger 2001-2011
</metadata>
<g transform="translate(0.000000,169.000000) scale(0.100000,-0.100000)"
fill="rgba(0, 0, 0, 0.015)" stroke="none">
<path d="M24 1636 l-28 -54 28 -52 28 -51 -29 -55 -28 -54 28 -51 29 -50 -29
-55 -28 -54 28 -53 c19 -35 26 -59 21 -72 -7 -20 -7 -20 13 0 11 11 17 22 13
25 -4 3 -19 27 -35 53 l-28 48 19 35 c11 20 27 44 37 55 10 10 14 19 9 19 -4
0 -20 23 -35 50 l-27 50 25 50 c15 29 32 50 42 50 12 0 11 5 -8 23 -13 12 -32
38 -43 57 l-18 36 31 52 c17 28 27 52 22 52 -5 0 -21 -24 -37 -54z"/>
<path d="M1520 1682 c0 -4 28 -17 63 -29 l62 -22 30 31 c29 30 18 30 -17 0
-15 -12 -24 -12 -77 6 -34 11 -61 18 -61 14z"/>
<path d="M1830 1670 c10 -10 21 -40 25 -68 6 -47 9 -51 48 -65 80 -29 81 -29
124 8 23 19 46 35 53 35 26 0 110 -33 110 -44 2 -40 14 -93 23 -103 7 -6 35
-21 63 -32 l51 -19 46 39 47 40 54 -18 55 -18 11 -62 12 -62 61 -20 61 -21 47
40 46 39 46 -17 c60 -23 60 -24 72 -89 l10 -56 53 -18 c28 -10 52 -14 52 -10
0 5 -21 15 -47 23 l-48 15 -8 58 -8 58 43 37 c23 21 50 35 58 33 11 -4 12 -2
3 4 -7 5 -18 35 -24 67 -11 54 -11 58 10 72 11 8 21 20 21 26 0 6 -11 1 -24
-11 l-24 -23 -54 20 c-53 20 -53 20 -66 77 -11 52 -11 59 5 71 10 7 13 14 8
14 -6 0 -16 -5 -21 -10 -7 -7 -21 -7 -43 1 -17 6 -34 9 -37 6 -3 -3 10 -10 30
-17 27 -8 36 -18 40 -41 17 -88 19 -82 -29 -120 l-45 -37 -54 20 -55 20 -7 56
c-7 55 -6 56 29 89 20 18 31 33 24 33 -7 0 -26 -13 -41 -29 l-29 -30 -51 20
c-28 12 -57 25 -63 31 -9 8 -13 7 -13 -3 0 -8 -19 -29 -41 -48 l-41 -34 -54
19 c-34 11 -54 24 -54 34 0 8 -5 22 -11 30 -8 12 -9 8 -5 -16 4 -27 -1 -35
-39 -67 l-43 -36 -54 18 c-51 17 -53 19 -62 64 -4 26 -12 47 -18 47 -5 0 -7
-8 -5 -17 19 -69 18 -71 -25 -111 l-42 -39 -57 19 -57 19 -7 54 c-3 30 -4 59
-1 63 3 5 -8 9 -24 10 -28 1 -28 0 -10 -18z m736 -36 c28 -12 34 -21 44 -68
l11 -55 -38 -36 c-41 -38 -58 -40 -126 -11 -32 13 -35 18 -41 70 -8 61 -12 55
63 113 16 13 31 10 87 -13z m-224 -30 c51 -17 53 -20 63 -86 7 -44 6 -46 -36
-82 -24 -20 -49 -34 -55 -32 -7 3 -30 10 -52 17 -38 11 -40 14 -51 70 l-12 58
38 35 c44 41 45 41 105 20z m608 -119 c0 -6 3 -32 6 -57 6 -44 5 -46 -38 -81
l-44 -36 -47 17 c-25 10 -49 21 -53 25 -4 3 -11 30 -15 59 l-9 53 42 36 42 36
58 -19 c32 -11 58 -26 58 -33z m-270 -4 l55 -19 11 -57 11 -56 -44 -38 -45
-38 -53 20 c-52 21 -53 22 -63 77 l-10 55 41 37 c23 20 42 37 42 38 1 0 25 -9
55 -19z"/>
<path d="M191 1670 c0 -8 10 -30 23 -49 l22 -35 -25 -45 c-14 -25 -29 -49 -34
-52 -5 -4 6 -31 25 -61 l35 -54 -28 -48 c-15 -27 -33 -52 -39 -56 -9 -5 -8 -9
2 -13 7 -2 24 -25 38 -51 l24 -45 -23 -43 c-13 -24 -30 -48 -38 -54 -11 -9
-11 -13 -1 -17 7 -3 24 -26 38 -51 24 -45 24 -46 6 -77 -10 -17 -15 -33 -12
-36 3 -3 13 8 23 26 12 20 26 31 41 31 12 0 22 5 22 10 0 6 -11 10 -23 10 -18
0 -30 12 -50 48 l-26 47 26 48 c16 29 33 47 44 47 10 0 21 5 24 10 3 6 -4 10
-17 10 -17 0 -30 12 -50 49 l-28 49 26 46 c14 25 33 50 42 56 14 8 14 9 2 10
-8 0 -27 22 -43 49 l-28 50 32 50 c31 51 31 51 84 51 l53 0 31 -52 30 -53 -21
-35 c-11 -19 -30 -43 -40 -52 -11 -10 -16 -18 -10 -18 6 0 24 -23 40 -52 l30
-51 -26 -49 c-22 -39 -32 -48 -55 -48 -16 0 -26 -4 -22 -10 3 -5 16 -10 28
-10 16 0 29 -14 48 -48 l27 -48 -27 -47 c-21 -38 -31 -47 -53 -47 -16 0 -28
-4 -28 -10 0 -5 12 -10 28 -10 22 0 32 -9 54 -49 l26 -48 -25 -42 c-14 -23
-23 -45 -20 -47 3 -3 18 17 34 43 l29 48 -32 54 -33 54 33 51 32 51 -33 54
-32 53 33 52 32 51 -28 45 c-15 24 -28 50 -28 57 0 23 40 94 57 100 13 5 14 8
2 17 -8 6 -26 31 -40 55 l-26 44 19 34 c11 18 16 33 10 33 -5 0 -15 -13 -22
-30 -12 -29 -15 -30 -76 -30 -35 0 -64 3 -64 8 0 4 -11 25 -25 47 -13 22 -24
33 -24 25z"/>
<path d="M589 1601 c14 -26 -32 -111 -60 -111 -10 0 -19 -4 -19 -10 0 -5 8
-10 18 -10 10 0 29 -20 46 -47 l28 -47 -28 -53 c-16 -29 -33 -53 -39 -53 -6 0
-6 -3 1 -8 6 -4 23 -28 38 -54 l27 -46 -28 -51 c-16 -28 -37 -52 -48 -54 -20
-4 -20 -4 0 -6 13 -1 30 -19 48 -50 l28 -50 -28 -50 c-15 -28 -35 -52 -43 -54
-13 -4 -13 -5 0 -6 8 -1 28 -24 43 -52 l28 -51 -26 -45 c-15 -24 -25 -47 -22
-49 2 -3 17 16 31 41 17 29 34 45 46 45 27 0 25 18 -1 22 -14 2 -32 20 -47 49
l-26 46 27 46 c18 31 35 47 47 47 11 0 20 5 20 10 0 6 -9 10 -20 10 -12 0 -29
16 -46 46 l-28 47 28 52 c22 42 31 52 47 48 10 -3 19 0 19 6 0 6 -9 11 -19 11
-12 0 -29 17 -47 47 l-27 47 28 53 c15 30 35 53 44 54 12 0 11 2 -4 9 -11 4
-31 28 -44 52 l-24 45 28 51 c20 38 34 52 54 55 l26 4 -28 2 c-15 0 -30 8 -33
16 -4 8 -10 15 -15 15 -6 0 -5 -8 0 -19z"/>
<path d="M696 1583 c25 -3 35 -13 58 -56 l28 -52 -26 -45 c-14 -24 -33 -48
-43 -52 -14 -5 -14 -7 -3 -7 9 -1 28 -25 44 -53 l28 -53 -27 -47 c-20 -37 -32
-48 -51 -48 -13 0 -24 -4 -24 -10 0 -5 11 -10 24 -10 18 0 31 -12 52 -47 l27
-47 -26 -45 c-15 -28 -34 -47 -46 -49 -27 -4 -27 -20 0 -24 12 -2 31 -21 46
-49 l26 -45 -27 -47 c-21 -35 -34 -47 -52 -47 -13 0 -24 -4 -24 -10 0 -5 11
-10 24 -10 18 0 31 -12 51 -47 l28 -46 -24 -43 c-13 -24 -21 -46 -18 -49 4 -3
17 15 30 39 16 32 31 46 49 49 l25 4 -26 2 c-20 1 -32 12 -53 51 l-27 50 28
50 c15 27 33 50 38 50 6 0 6 3 -1 8 -6 4 -23 28 -38 54 l-28 47 28 50 c14 28
34 52 43 54 13 4 13 5 1 6 -8 0 -28 24 -43 51 l-29 51 28 47 c15 26 32 50 37
53 5 4 5 9 -2 13 -6 4 -22 27 -36 51 l-26 44 26 50 c14 28 32 51 40 51 8 0 15
5 15 10 0 6 -6 10 -14 10 -8 0 -27 22 -43 50 -26 46 -31 50 -63 48 -34 -1 -34
-1 -4 -5z"/>
<path d="M1320 1570 c0 -5 11 -10 25 -10 33 0 355 -71 472 -104 248 -70 463
-154 663 -258 169 -88 308 -186 428 -303 80 -78 92 -87 92 -66 0 40 -149 176
-315 288 -32 21 -52 43 -40 43 21 0 156 -87 285 -184 75 -56 97 -45 29 15
-264 235 -782 432 -1459 555 -74 13 -145 26 -157 29 -13 3 -23 1 -23 -5z"/>
<path d="M930 1521 c-6 -16 -21 -32 -33 -36 -22 -6 -22 -6 -2 -14 11 -5 31
-29 45 -55 l24 -45 -23 -43 c-13 -24 -30 -48 -38 -54 -11 -9 -11 -13 -1 -17 7
-3 24 -26 38 -51 l25 -46 -20 -37 c-11 -21 -28 -45 -37 -54 -11 -12 -13 -19
-5 -22 7 -3 23 -26 37 -51 l25 -46 -25 -46 c-14 -25 -34 -50 -45 -54 -16 -7
-16 -9 -3 -9 9 -1 29 -24 45 -53 l30 -52 -30 -48 c-20 -31 -37 -48 -51 -49
-20 -1 -19 -1 2 -8 14 -3 35 -26 50 -53 26 -46 26 -47 9 -82 -9 -20 -13 -36
-8 -36 5 0 14 14 21 30 10 24 19 30 41 30 16 0 29 4 29 9 0 4 -11 6 -24 4 -21
-4 -29 3 -55 48 l-30 53 27 48 c20 36 33 48 50 48 13 0 20 4 17 10 -3 6 -14
10 -23 10 -10 0 -28 20 -44 48 l-27 47 27 48 c15 26 33 47 40 47 6 0 12 5 12
10 0 6 -6 10 -13 10 -8 0 -25 21 -40 47 l-26 48 27 47 c16 29 34 48 45 48 9 0
17 5 17 10 0 6 -8 10 -17 10 -11 0 -29 20 -46 50 l-28 50 35 54 c19 30 32 56
28 58 -4 2 -20 24 -35 50 l-27 47 21 35 c12 20 17 36 11 36 -5 0 -15 -13 -22
-29z"/>
<path d="M1130 1515 c0 -5 4 -16 9 -24 12 -18 -38 -111 -58 -111 -12 0 -12 -3
2 -12 9 -7 27 -33 41 -57 l24 -44 -26 -48 c-16 -29 -34 -49 -44 -49 -10 0 -18
-4 -18 -10 0 -5 8 -10 18 -10 10 0 28 -19 43 -48 l26 -47 -26 -47 c-14 -26
-35 -50 -46 -54 -20 -7 -20 -7 0 -11 11 -2 32 -25 47 -51 l27 -47 -27 -48
c-16 -28 -34 -47 -44 -47 -10 0 -18 -4 -18 -10 0 -5 8 -10 18 -10 10 0 28 -20
44 -48 l26 -49 -30 -52 c-23 -40 -35 -51 -49 -48 -11 3 -19 1 -19 -4 0 -5 10
-9 23 -9 29 0 83 -96 65 -117 -6 -7 -8 -16 -5 -20 4 -3 10 2 13 11 4 10 16 22
28 26 16 7 17 9 4 9 -9 1 -30 23 -46 49 l-29 48 28 49 c16 29 38 53 51 57 23
6 23 6 1 7 -14 1 -31 17 -51 49 l-30 49 30 51 c16 29 34 52 38 52 5 0 -1 11
-14 25 -13 14 -30 40 -37 57 -11 27 -10 35 11 75 13 25 33 48 44 52 19 8 19 8
0 13 -10 3 -30 26 -43 51 -22 40 -23 48 -12 76 7 17 23 42 36 55 14 16 19 26
11 29 -6 3 -22 25 -36 51 l-24 45 22 47 c13 25 32 48 42 51 24 6 26 23 4 23
-9 0 -23 8 -30 18 -7 9 -13 13 -14 7z"/>
<path d="M1220 1480 c0 -5 12 -10 28 -10 22 0 32 -9 55 -49 l28 -50 -28 -50
c-15 -28 -35 -52 -43 -54 -13 -4 -13 -5 0 -6 8 0 28 -24 43 -51 l28 -50 -28
-50 c-16 -28 -36 -51 -48 -53 -20 -4 -20 -4 0 -6 13 -1 30 -19 48 -50 l28 -50
-28 -50 c-15 -28 -35 -52 -43 -54 -13 -4 -13 -5 0 -6 8 -1 28 -24 43 -52 l28
-50 -28 -49 c-16 -28 -36 -51 -48 -53 -20 -4 -20 -4 0 -6 13 -1 30 -19 48 -52
l28 -50 -27 -49 c-15 -27 -34 -51 -43 -53 -13 -4 -13 -5 -1 -6 8 -1 29 -25 45
-54 17 -29 38 -53 48 -53 10 -1 12 0 3 3 -8 2 -26 27 -41 56 l-27 52 27 48
c17 30 33 47 46 47 10 0 19 5 19 11 0 6 -8 8 -19 4 -14 -4 -24 6 -46 48 l-28
53 27 47 c18 30 35 47 47 47 10 0 19 5 19 10 0 6 -9 10 -20 10 -12 0 -29 16
-46 46 l-27 46 24 46 c13 24 32 47 42 50 21 5 23 22 2 22 -8 0 -26 21 -41 46
l-27 46 21 44 c14 27 33 49 49 56 26 11 27 12 6 15 -13 3 -32 22 -49 50 l-27
47 24 44 c13 25 29 51 37 58 7 8 9 14 4 14 -6 0 -23 21 -38 48 -15 26 -32 50
-38 54 -16 11 -56 10 -56 -2z"/>
<path d="M1475 1409 c-4 -11 -16 -24 -28 -29 -14 -5 -16 -9 -7 -9 9 -1 29 -25
44 -54 l29 -53 -27 -47 c-16 -26 -34 -47 -42 -47 -20 0 -17 -17 4 -22 9 -3 28
-25 41 -50 l24 -45 -28 -46 c-15 -26 -33 -47 -41 -47 -8 0 -14 -4 -14 -10 0
-5 7 -10 15 -10 8 0 26 -21 41 -46 l28 -47 -24 -44 c-13 -25 -35 -50 -49 -56
-25 -10 -25 -11 -4 -14 13 -3 32 -22 49 -51 l27 -46 -29 -53 c-21 -40 -33 -53
-46 -49 -10 2 -21 0 -24 -5 -3 -5 6 -9 19 -9 19 0 32 -11 53 -47 l27 -47 -28
-53 c-15 -30 -35 -53 -44 -54 -11 0 -10 -3 5 -9 12 -4 24 -16 28 -26 3 -9 9
-14 12 -11 3 3 1 15 -6 26 -9 17 -6 29 16 66 14 25 33 49 42 55 14 8 14 9 2
10 -8 0 -28 22 -43 49 l-28 50 28 50 c16 28 37 52 48 54 19 4 19 4 -1 6 -14 1
-30 17 -48 50 l-27 50 28 50 c15 28 35 52 43 54 13 4 12 5 -1 6 -9 0 -28 23
-43 51 l-27 50 28 50 c15 27 35 51 43 54 13 3 13 4 0 5 -8 1 -28 24 -43 52
l-28 51 27 46 c15 26 32 50 37 53 5 4 5 9 -1 13 -6 3 -22 26 -36 51 -25 42
-26 46 -11 75 8 16 11 30 6 30 -5 0 -13 -9 -16 -21z"/>
<path d="M1673 1330 c-10 -18 -26 -41 -35 -51 -12 -13 -13 -19 -4 -22 7 -3 23
-26 36 -51 l25 -46 -25 -46 c-14 -25 -34 -49 -44 -53 -19 -8 -19 -8 0 -13 11
-3 31 -26 44 -51 l25 -47 -20 -37 c-11 -21 -28 -45 -37 -55 -10 -10 -14 -18
-9 -18 5 0 23 -23 39 -52 l30 -51 -30 -49 c-20 -32 -37 -48 -51 -49 -21 -1
-21 -1 1 -7 13 -4 35 -28 51 -56 l29 -49 -30 -48 c-16 -27 -35 -49 -41 -49 -8
0 -7 -3 1 -9 8 -4 26 -30 42 -57 l27 -49 -23 -37 c-26 -41 -28 -48 -16 -48 5
0 16 16 25 35 9 20 27 40 39 45 16 6 18 9 6 9 -9 1 -30 24 -47 51 l-31 50 28
50 c20 37 33 50 50 50 12 0 22 4 22 9 0 5 -9 7 -19 4 -15 -4 -26 7 -50 48
l-30 53 27 48 c20 36 33 48 50 48 13 0 20 4 17 10 -3 6 -14 10 -23 10 -10 0
-28 20 -43 47 l-27 47 27 48 c15 28 33 48 44 48 9 0 17 5 17 10 0 6 -8 10 -17
10 -11 0 -29 19 -45 48 l-27 47 26 48 c20 35 32 47 50 47 13 0 23 5 23 10 0 6
-10 10 -22 10 -17 0 -30 13 -50 49 l-26 48 24 43 c13 24 22 45 20 48 -3 2 -13
-10 -23 -28z"/>
<path d="M1861 1305 c-1 -6 4 -16 10 -22 18 -18 -40 -113 -68 -113 -13 0 -23
-4 -23 -10 0 -5 10 -10 23 -10 16 0 29 -13 49 -47 l27 -48 -27 -47 c-16 -29
-34 -48 -44 -48 -10 0 -18 -4 -18 -10 0 -5 8 -10 18 -10 10 0 28 -19 44 -48
l27 -47 -26 -48 c-17 -29 -33 -47 -45 -47 -10 0 -18 -4 -18 -10 0 -5 8 -10 18
-10 10 0 28 -20 44 -49 l26 -48 -29 -52 c-24 -42 -34 -51 -49 -46 -12 4 -20 2
-20 -4 0 -6 10 -11 23 -11 16 0 29 -13 49 -50 l27 -49 -26 -46 c-14 -26 -35
-50 -47 -55 -20 -8 -20 -9 -1 -10 26 -1 82 -97 66 -113 -14 -14 -14 -27 -1
-27 6 0 10 7 10 15 0 9 9 15 25 15 31 0 33 17 3 22 -13 2 -32 20 -48 48 l-27
46 29 52 c21 36 36 52 51 53 21 1 21 1 -1 8 -14 3 -35 26 -50 53 l-26 46 26
49 c16 29 36 50 50 54 l23 6 -24 4 c-16 3 -32 19 -50 51 l-26 47 25 46 c14 26
34 50 44 54 19 8 19 8 0 13 -11 3 -31 26 -44 52 l-25 46 27 48 c16 28 36 49
50 53 l23 6 -23 4 c-15 3 -32 20 -50 52 l-26 49 26 46 c15 27 36 50 50 53 22
7 22 7 2 8 -12 1 -29 11 -37 24 -9 12 -16 17 -16 12z"/>
<path d="M2036 1205 l25 -45 -28 -49 c-16 -29 -36 -52 -48 -54 -20 -4 -20 -4
0 -6 13 -1 30 -19 48 -52 l28 -50 -28 -49 c-16 -28 -36 -51 -48 -53 -20 -4
-20 -4 0 -6 14 -1 30 -18 49 -53 l28 -53 -28 -47 c-16 -26 -38 -49 -49 -51
-20 -4 -20 -4 0 -6 13 -1 30 -19 48 -51 l28 -50 -27 -50 c-16 -30 -35 -51 -48
-53 -20 -4 -20 -4 -1 -6 13 -1 30 -19 48 -54 l28 -52 -26 -48 c-17 -30 -33
-47 -46 -47 -10 0 -19 -4 -19 -10 0 -5 9 -10 20 -10 12 0 26 -12 35 -30 9 -16
20 -30 25 -30 5 0 0 16 -12 35 l-20 36 23 45 c13 25 33 50 44 54 14 6 15 9 5
9 -9 1 -29 25 -44 54 l-29 53 27 47 c23 39 33 47 57 47 16 0 29 4 29 8 0 5
-13 7 -28 4 -26 -3 -31 2 -57 50 l-28 54 27 47 c21 36 34 47 53 47 13 0 21 4
18 10 -3 6 -14 10 -25 10 -11 0 -29 18 -45 47 l-28 46 24 45 c13 24 35 49 49
54 l25 11 -23 6 c-14 4 -34 25 -49 52 l-27 46 28 47 27 46 59 0 59 0 27 -46
28 -47 -26 -46 c-16 -28 -35 -47 -47 -49 -27 -4 -27 -20 0 -24 14 -2 32 -20
47 -49 l26 -46 -27 -46 c-18 -31 -35 -47 -47 -47 -11 0 -20 -4 -20 -10 0 -5 9
-10 19 -10 12 0 29 -17 47 -47 l27 -47 -29 -53 c-21 -40 -33 -53 -46 -49 -10
2 -21 0 -24 -5 -3 -5 6 -9 19 -9 19 0 32 -11 53 -47 l27 -47 -28 -52 c-18 -32
-37 -55 -49 -57 -20 -4 -20 -4 1 -6 14 -1 30 -16 47 -45 32 -55 32 -57 1 -106
-27 -42 -29 -50 -17 -50 4 0 18 20 31 45 13 25 30 45 37 45 8 0 14 5 14 10 0
6 -6 10 -13 10 -8 0 -26 22 -41 50 l-27 50 26 45 c15 25 34 49 43 55 14 8 14
9 2 10 -8 0 -28 22 -43 50 l-28 50 27 46 c15 25 36 50 48 54 20 8 20 9 1 9
-13 1 -29 18 -48 51 l-28 50 28 50 c15 27 35 51 43 54 13 3 13 4 0 5 -8 0 -28
23 -43 50 l-28 50 28 50 28 51 56 0 56 0 30 -49 31 -49 -29 -51 c-17 -29 -37
-51 -47 -52 -15 0 -15 -1 1 -8 10 -3 31 -28 46 -55 l29 -48 -31 -49 c-20 -32
-37 -49 -51 -50 -20 -1 -20 -1 2 -7 13 -4 35 -28 51 -56 l29 -49 -30 -48 c-16
-27 -37 -49 -46 -50 -15 0 -15 -1 1 -7 10 -4 30 -29 46 -56 l27 -49 -25 -48
c-16 -30 -33 -49 -43 -49 -10 0 -18 -4 -18 -10 0 -5 8 -10 18 -10 20 0 77 -96
62 -105 -6 -3 -10 -11 -10 -17 0 -6 8 -4 18 5 13 12 36 17 74 17 52 0 56 -2
68 -30 7 -16 17 -30 22 -30 6 0 1 15 -10 34 l-20 33 29 47 c16 25 36 46 44 46
8 0 15 5 15 10 0 6 -7 10 -15 10 -14 0 -65 76 -65 98 0 20 54 101 70 106 12 3
12 4 -2 5 -17 1 -68 76 -68 99 0 21 55 102 70 103 10 0 8 3 -5 9 -11 4 -31 29
-45 54 l-25 46 20 37 c11 21 28 45 38 55 9 10 13 18 8 18 -14 0 -61 85 -62
112 0 13 -3 17 -6 11 -2 -7 -18 -13 -34 -13 -16 0 -29 -4 -29 -10 0 -5 13 -10
28 -10 24 0 33 -8 56 -49 l26 -49 -27 -46 c-20 -33 -34 -46 -50 -46 -13 0 -23
-4 -23 -10 0 -5 10 -10 23 -10 16 0 29 -13 49 -48 l27 -48 -30 -52 -30 -52
-55 1 c-55 2 -55 2 -84 52 l-28 50 26 48 c16 29 34 49 45 49 9 0 17 5 17 10 0
6 -8 10 -17 10 -11 0 -29 19 -44 47 l-27 47 27 48 c15 27 33 48 43 48 9 0 20
5 23 10 3 6 -4 10 -17 10 -17 0 -30 12 -49 48 -15 26 -24 54 -21 62 4 12 2 13
-9 3 -7 -7 -38 -13 -69 -13 l-55 0 -30 55 -29 55 -63 0 -63 0 -20 40 c-11 22
-24 40 -29 40 -6 0 2 -20 15 -45z m547 -734 l28 -50 -31 -50 c-17 -27 -39 -52
-48 -54 -14 -4 -13 -5 3 -6 13 -1 30 -19 48 -51 l28 -50 -29 -48 c-28 -46 -30
-47 -85 -50 l-56 -3 -29 51 -30 52 25 45 c14 24 35 48 47 53 17 7 17 9 4 9
-10 1 -30 23 -47 52 l-29 52 26 48 27 49 60 0 60 0 28 -49z"/>
<path d="M0 862 c0 -44 227 -243 367 -323 24 -13 43 -27 43 -31 0 -13 -214
109 -270 154 -19 15 -55 43 -78 63 -46 37 -62 43 -61 23 1 -22 125 -120 237
-188 169 -103 439 -216 657 -275 33 -9 92 -25 130 -36 143 -39 628 -139 675
-139 35 0 -8 11 -148 39 -670 134 -1164 354 -1464 650 -75 74 -88 83 -88 63z"/>
<path d="M2724 849 c-13 -5 -14 -8 -4 -8 8 -1 28 -24 43 -51 l28 -50 -28 -50
c-22 -39 -34 -50 -58 -53 l-30 -4 30 -1 c26 -2 35 -10 59 -55 l29 -52 -29 -48
c-19 -31 -36 -47 -49 -47 -18 0 -18 -1 3 -13 13 -6 35 -32 49 -57 l25 -45 -28
-47 c-16 -26 -37 -49 -49 -51 -18 -3 -18 -4 5 -14 14 -6 36 -31 49 -56 l24
-44 -23 -37 c-12 -20 -20 -39 -17 -42 3 -3 15 13 28 35 15 27 30 41 48 44 l26
4 -26 2 c-21 1 -32 12 -54 54 l-28 52 29 47 c16 26 38 49 49 51 l20 4 -20 2
c-14 1 -30 18 -49 54 l-29 53 27 47 c21 35 34 47 52 47 13 0 24 5 24 11 0 5
-10 9 -22 7 -17 -2 -29 8 -52 45 l-30 49 26 46 c19 34 34 48 52 50 34 4 33 20
0 24 -20 2 -33 15 -54 54 -22 42 -30 49 -46 43z"/>
<path d="M2946 584 c-25 -47 -33 -55 -53 -51 -13 2 -23 0 -23 -4 0 -5 11 -9
24 -9 18 0 31 -12 51 -47 l28 -46 -27 -54 c-19 -40 -31 -53 -48 -54 l-23 -1
23 -7 c14 -3 35 -26 50 -53 l26 -46 -26 -49 c-19 -35 -35 -50 -55 -54 l-28 -7
27 -1 c21 -1 32 -11 54 -51 15 -28 34 -50 43 -50 10 0 12 3 5 8 -6 4 -23 28
-38 53 l-27 47 22 38 c12 22 29 44 37 51 13 10 12 14 -2 29 -9 9 -25 33 -36
55 l-20 38 22 38 c12 21 28 46 36 56 8 9 11 17 5 17 -5 0 -22 22 -37 49 l-27
50 31 49 c31 51 35 62 23 62 -5 0 -21 -25 -37 -56z"/>
<path d="M0 541 c0 -4 21 -14 48 -22 l47 -15 8 -58 8 -58 -38 -34 c-21 -18
-47 -33 -58 -34 -14 0 -16 -3 -8 -8 7 -5 18 -34 24 -66 11 -54 11 -58 -10 -72
-11 -8 -21 -20 -21 -26 0 -6 11 -1 24 11 l24 23 54 -20 c52 -19 53 -21 65 -73
10 -46 10 -56 -4 -71 -17 -19 -5 -26 13 -8 8 8 19 8 38 0 15 -5 35 -10 44 -9
9 0 -2 7 -25 15 -33 12 -43 21 -47 45 -3 16 -8 41 -11 57 -5 23 1 33 38 64
l44 37 56 -21 c47 -17 56 -25 61 -50 13 -65 7 -85 -31 -117 -21 -17 -32 -31
-25 -31 6 0 26 13 44 29 l33 29 50 -20 c27 -11 56 -24 62 -30 10 -8 13 -6 13
4 0 8 18 29 41 48 l41 33 54 -19 c34 -11 54 -24 54 -34 0 -8 5 -22 11 -30 8
-11 9 -8 5 17 -5 28 0 35 39 68 l45 36 52 -19 c50 -19 53 -22 65 -68 l12 -49
-4 52 c-4 50 -3 52 38 86 l42 34 56 -19 55 -18 10 -60 c7 -41 7 -61 0 -63 -6
-2 7 -4 29 -5 38 -1 39 -1 15 11 -20 10 -27 23 -33 69 l-9 56 -60 22 -61 22
-26 -21 c-68 -55 -65 -54 -124 -35 l-55 17 -6 51 c-4 28 -10 56 -14 62 -4 5
-33 20 -64 31 l-57 22 -45 -40 -46 -40 -52 19 c-53 19 -53 20 -67 80 l-14 60
-59 22 c-64 23 -62 24 -123 -31 l-30 -28 -55 22 -54 22 -11 59 -10 59 -52 18
c-29 10 -53 14 -53 10z m446 -215 c5 -28 8 -54 9 -57 0 -4 -19 -22 -42 -42
l-42 -35 -54 20 -54 20 -10 56 c-10 55 -10 56 20 81 58 50 56 49 113 28 52
-19 53 -20 60 -71z m-261 32 c43 -15 47 -21 56 -79 8 -52 8 -53 -29 -85 -43
-39 -44 -39 -109 -18 l-50 16 -9 57 -9 56 45 38 c27 23 51 35 60 31 8 -3 29
-11 45 -16z m545 -85 c48 -17 48 -18 60 -75 l11 -58 -32 -28 c-51 -44 -57 -45
-109 -26 -54 20 -57 23 -65 91 -5 47 -4 49 36 81 23 17 43 32 46 32 3 0 27 -8
53 -17z m-208 -39 c51 -17 55 -22 63 -91 6 -47 5 -48 -39 -80 l-44 -32 -45 17
c-53 20 -60 26 -63 50 -2 9 -6 31 -9 49 -5 28 -1 37 32 67 44 41 45 41 105 20z"/>
<path d="M1325 28 c-27 -29 -27 -30 -5 -15 42 29 47 29 105 8 30 -11 55 -17
55 -13 0 5 -24 16 -52 26 -29 9 -58 19 -63 22 -6 2 -24 -10 -40 -28z"/>
</g>
</svg>
